<svg viewBox="0 0 252.92 83.75" xmlns="http://www.w3.org/2000/svg" xmlns:xlink="http://www.w3.org/1999/xlink"><clipPath id="a"><path d="m247.76 7.25a2 2 0 0 0 .35-1.15 2 2 0 0 0 -.63-1.61 3.06 3.06 0 0 0 -2-.53h-2.13v7.27h1.21v-2.9h1.1l1.69 2.89h1.37l-1.94-3.22a2.05 2.05 0 0 0 .98-.75zm-2.31.08h-.88v-2.33h.86a1.85 1.85 0 0 1 1.11.26 1 1 0 0 1 .35.88 1.08 1.08 0 0 1 -.4.86 1.56 1.56 0 0 1 -1.04.32z"/></clipPath><clipPath id="b"><path d="m250.93 4.5a6 6 0 0 0 -2.25-2.24 6.14 6.14 0 0 0 -6.13 0 6 6 0 0 0 -2.24 2.25 6.15 6.15 0 0 0 0 6.08 6.13 6.13 0 0 0 11.47-3 6 6 0 0 0 -.85-3.09zm-.75 5.72a5.31 5.31 0 0 1 -1.93 1.92 5.13 5.13 0 0 1 -2.63.71 5.28 5.28 0 0 1 -5.28-5.28 5.12 5.12 0 0 1 .71-2.65 5.31 5.31 0 0 1 1.95-1.92 5.26 5.26 0 0 1 5.28 0 5.31 5.31 0 0 1 1.92 1.93 5.25 5.25 0 0 1 0 5.28z"/></clipPath><linearGradient id="c" gradientUnits="userSpaceOnUse" x1="3.08" x2="46.02" y1="48.17" y2="48.17"><stop offset=".31" stop-color="#303082"/><stop offset=".99" stop-color="#303082"/></linearGradient><linearGradient id="d" x1="50.11" x2="93.05" xlink:href="#c" y1="48.68" y2="48.68"/><linearGradient id="e" x1="169.96" x2="217.31" xlink:href="#c" y1="48.28" y2="48.28"/><linearGradient id="f" x1="220.86" x2="236.92" xlink:href="#c" y1="48.04" y2="48.04"/><linearGradient id="g" gradientUnits="userSpaceOnUse" x1="109.92" x2="109.55" y1="54.15" y2="21.17"><stop offset="0" stop-color="#5fecfd"/><stop offset="1" stop-color="#0154ff"/></linearGradient><linearGradient id="h" x1="101.71" x2="117.68" xlink:href="#c" y1="61.06" y2="61.06"/><linearGradient id="i" gradientTransform="matrix(.72248464 -.69138697 .69138697 .72248464 -349.73 -252.63)" x1="123.71" x2="139.2" xlink:href="#c" y1="569.78" y2="569.78"/><linearGradient id="j" x1="158.73" x2="113.01" xlink:href="#g" y1="11.9" y2="51.05"/><g clip-path="url(#a)" fill="#303082"><path d="m244.57 4.98h.44v2.34h-.44z"/><path d="m245 4.98h1.88v2.34h-1.88z"/><path d="m243.36 3.95h1.65v7.27h-1.65z"/><path d="m245 3.95h3.66v7.27h-3.66z"/><path d="m248.67 3.95h.06v7.27h-.06z"/></g><g clip-path="url(#b)" fill="#303082"><path d="m240.34 2.3h2.91v10.55h-2.91z"/><path d="m243.25 2.3h7.65v10.55h-7.65z"/><path d="m239.48 1.44h3.76v12.26h-3.76z"/><path d="m243.25 1.44h8.37v12.26h-8.37z"/><path d="m251.62 1.44h.13v12.26h-.13z"/></g><path d="m40 75q-5.59 4.55-15 4.55-9.63 0-15.5-4.79-6.42-5.11-6.42-14.44v-2h15.38a10.11 10.11 0 0 0 1.48 5.68 5.39 5.39 0 0 0 4.83 2.63q5.87 0 5.87-5.78a5.22 5.22 0 0 0 -2-4.27 11.82 11.82 0 0 0 -2.08-1.28l-1.16-.56-6.62-2.84a44.54 44.54 0 0 1 -5.63-2.75 23.24 23.24 0 0 1 -4.71-3.55 15.11 15.11 0 0 1 -4.44-11.01 15.79 15.79 0 0 1 6.71-13.12 23.24 23.24 0 0 1 14.46-4.67 24.3 24.3 0 0 1 8.95 1.67 18.17 18.17 0 0 1 7.43 5.19q3.75 4.63 4 11.93h-15.31q-.88-5.9-5.55-5.9-5.31 0-5.31 4.75a4.77 4.77 0 0 0 .56 2.56q.92 1.56 5.55 3.83l6.39 2.87a48.48 48.48 0 0 1 5.59 2.91 21.75 21.75 0 0 1 4.47 3.55 15.17 15.17 0 0 1 4.06 10.84q0 9.09-6 14z" fill="url(#c)"/><path d="m87 75.51q-5.59 4.55-15 4.55-9.63 0-15.5-4.79-6.35-5.11-6.35-14.44v-2h15.34a10.11 10.11 0 0 0 1.51 5.67 5.39 5.39 0 0 0 4.83 2.63q5.87 0 5.87-5.78a5.22 5.22 0 0 0 -2-4.27 11.82 11.82 0 0 0 -2.08-1.28l-1.16-.56-6.59-2.83a44.54 44.54 0 0 1 -5.63-2.75 23.24 23.24 0 0 1 -4.71-3.55 15.11 15.11 0 0 1 -4.53-11.01 15.79 15.79 0 0 1 6.74-13.1 23.24 23.24 0 0 1 14.46-4.7 24.3 24.3 0 0 1 8.95 1.7 18.17 18.17 0 0 1 7.43 5.19q3.75 4.63 4 11.93h-15.31q-.88-5.9-5.55-5.9-5.31 0-5.31 4.75a4.77 4.77 0 0 0 .59 2.52q.92 1.56 5.55 3.83l6.39 2.87a48.48 48.48 0 0 1 5.56 2.91 21.75 21.75 0 0 1 4.5 3.56 15.17 15.17 0 0 1 4.07 10.85q-.02 9.09-6.07 14z" fill="url(#d)"/><path d="m215.65 47a19.16 19.16 0 0 1 -5 7.54 20.52 20.52 0 0 1 -8.59 4.48 40.28 40.28 0 0 1 -9.75 1h-7v19.68h-15.31v-62.84h20.58q3 0 5 .12a44.34 44.34 0 0 1 5.15.58 19.28 19.28 0 0 1 9.21 3.9q7.39 6.26 7.39 16.62a24.93 24.93 0 0 1 -1.68 8.92zm-17.06-14.8q-2.4-1.2-7.3-1.2h-5.93v15h6.52q4.65 0 7-1.41 3-1.78 3-6.13t-3.29-6.26z" fill="url(#e)"/><path d="m220.86 79.46v-62.84h16.06v62.84z" fill="url(#f)"/><path d="m117.56 56.72-15.85-14.18.04-17.86 16.06 13z" fill="url(#g)"/><path d="m117.68 79.54-15.89.03-.08-37.03 15.85 14.18z" fill="url(#h)"/><path d="m160.83 79.53-20.08.13-23.19-22.94 11.09-9.73z" fill="url(#i)"/><path d="m173.44 7.61h-20.44l-46.36 39.34 10.92 9.78z" fill="url(#j)"/></svg>